# This file uses centimeters as units for non-parametric coordinates.

mtllib GlassOfBeer.mtl
g default
v 1.126814 2.710771 0.000000
v 1.090965 2.702842 -0.621597
v 0.628916 2.702842 -1.089932
v -0.007120 2.702842 -1.265782
v -0.563407 2.710771 -0.975850
v -0.975850 2.710771 -0.563407
v -1.126814 2.710771 0.000000
v -0.975850 2.710771 0.563407
v -0.563407 2.710771 0.975850
v 0.000000 2.710771 1.126814
v 0.563407 2.710771 0.975849
v 0.975850 2.710771 0.563407
v 1.287967 2.710771 0.000000
v 1.115412 2.710771 -0.643984
v 0.643984 2.710771 -1.115412
v 0.000000 2.710771 -1.287967
v -0.643984 2.710771 -1.115412
v -1.115412 2.710771 -0.643984
v -1.287967 2.710771 0.000000
v -1.115412 2.710771 0.643984
v -0.643984 2.710771 1.115412
v 0.000000 2.710771 1.287967
v 0.643984 2.710771 1.115412
v 1.115412 2.710771 0.643984
v 0.835447 -0.837433 -0.000000
v 0.723519 -0.837433 -0.417724
v 0.417724 -0.837433 -0.723519
v 0.000000 -0.837433 -0.835447
v -0.417724 -0.837433 -0.723519
v -0.723519 -0.837433 -0.417724
v -0.835447 -0.837433 -0.000000
v -0.723519 -0.837433 0.417724
v -0.417724 -0.837433 0.723519
v 0.000000 -0.837433 0.835447
v 0.417724 -0.837433 0.723519
v 0.723519 -0.837433 0.417724
v 0.916301 -2.721937 -0.000000
v 0.793540 -2.721937 -0.458151
v 0.790637 -2.884330 -0.000000
v 0.684711 -2.884330 -0.395318
v 0.458151 -2.721937 -0.793541
v 0.395318 -2.884330 -0.684712
v 0.000000 -2.721937 -0.916302
v -0.000000 -2.884330 -0.790638
v -0.458151 -2.721937 -0.793541
v -0.395318 -2.884330 -0.684712
v -0.793540 -2.721937 -0.458151
v -0.684711 -2.884330 -0.395318
v -0.916301 -2.721937 -0.000000
v -0.790637 -2.884330 -0.000000
v -0.793540 -2.721937 0.458151
v -0.684711 -2.884330 0.395319
v -0.458151 -2.721937 0.793541
v -0.395318 -2.884330 0.684712
v 0.000000 -2.721937 0.916302
v 0.000000 -2.884330 0.790637
v 0.458151 -2.721937 0.793540
v 0.395318 -2.884330 0.684711
v 0.793540 -2.721937 0.458151
v 0.684711 -2.884330 0.395318
v 1.126814 2.815164 0.000000
v 1.090965 2.823094 -0.621597
v 0.628916 2.823094 -1.089932
v -0.007120 2.823094 -1.265782
v -0.563407 2.815164 -0.975850
v -0.975850 2.815164 -0.563407
v -1.126814 2.815164 0.000000
v -0.975850 2.815164 0.563407
v -0.563407 2.815164 0.975850
v 0.000000 2.815164 1.126814
v 0.563407 2.815164 0.975849
v 0.975850 2.815164 0.563407
v 0.688638 2.966030 0.000000
v 0.596378 3.017302 -0.344319
v 0.344319 3.017302 -0.596378
v -0.000000 3.017302 -0.688638
v -0.344319 2.966030 -0.596378
v -0.596378 2.966030 -0.344319
v -0.688638 2.966030 0.000000
v -0.596378 3.018008 0.344319
v -0.344319 3.018008 0.596378
v 0.000000 3.047286 0.688638
v 0.344319 3.047286 0.596378
v 0.596378 2.966030 0.344319
v 0.206349 3.018660 0.000000
v 0.178703 3.018660 -0.103174
v 0.103174 3.018660 -0.178703
v 0.000000 3.018660 -0.206349
v -0.103174 3.018660 -0.178703
v -0.178703 3.018660 -0.103174
v -0.206349 3.018660 0.000000
v -0.178703 3.018660 0.103174
v -0.103174 3.018660 0.178703
v 0.000000 3.018660 0.206349
v 0.103174 3.018660 0.178703
v 0.178703 3.018660 0.103174
v 1.062356 2.702842 -0.846163
v 0.862248 2.702842 -1.048992
v 0.818734 2.784859 -1.021383
v 1.018841 2.784859 -0.818554
v 0.986259 2.445864 -0.715256
v 0.735221 2.445864 -0.969709
v 0.861994 2.445864 -0.947466
v 0.970715 2.445864 -0.837266
v 0.957724 2.175510 -0.695068
v 0.697228 2.175510 -0.959108
v 0.828777 2.175510 -0.936027
v 0.941594 2.175510 -0.821675
v 0.969275 1.932621 -0.624799
v 0.633321 1.932621 -0.965323
v 0.802976 1.932621 -0.935556
v 0.948473 1.932621 -0.788080
v 0.876929 1.748912 -0.697754
v 0.705786 1.748912 -0.871226
v 0.792212 1.748912 -0.856062
v 0.866332 1.748912 -0.780934
vt 0.260431 0.025634
vt 0.181932 0.036096
vt 0.863818 0.159577
vt 0.789849 0.134923
vt 0.715796 0.111047
vt 0.641273 0.089633
vt 0.566195 0.071039
vt 0.490549 0.055329
vt 0.414334 0.042514
vt 0.337573 0.032607
vt 0.258324 0.044644
vt 0.180543 0.039899
vt 0.938416 0.201970
vt 0.858878 0.178881
vt 0.783795 0.153292
vt 0.709915 0.129372
vt 0.635951 0.108103
vt 0.561545 0.089687
vt 0.486604 0.074141
vt 0.411104 0.061465
vt 0.335031 0.051656
vt 0.233559 0.489775
vt 0.176826 0.485216
vt 0.733650 0.603616
vt 0.682072 0.584895
vt 0.628489 0.567617
vt 0.573698 0.551826
vt 0.518017 0.537518
vt 0.461675 0.524735
vt 0.404870 0.513529
vt 0.347788 0.503945
vt 0.290618 0.496018
vt 0.147362 0.715106
vt 0.201805 0.720891
vt 0.679261 0.831546
vt 0.664946 0.853528
vt 0.625591 0.811256
vt 0.616709 0.834330
vt 0.572720 0.794937
vt 0.565472 0.818816
vt 0.520040 0.780557
vt 0.513549 0.804799
vt 0.467384 0.767533
vt 0.273168 0.924089
vt 0.414649 0.755752
vt 0.225354 0.943837
vt 0.361754 0.745215
vt 0.250895 0.752627
vt 0.308629 0.735919
vt 0.304706 0.883108
vt 0.255239 0.727812
vt 0.291831 0.784110
vt 0.021903 0.026791
vt 0.102741 0.032507
vt 0.021593 0.029816
vt 0.102351 0.036078
vt 0.065729 0.480900
vt 0.119862 0.806611
vt 0.113167 0.857858
vt 0.120720 0.482318
vt 0.091690 0.710750
vt 0.033267 0.709566
vt 0.151274 0.765603
vt 0.174054 0.937084
vt 0.132999 0.905615
vt 0.198973 0.745815
vt 0.304154 0.760669
vt 0.356808 0.769879
vt 0.409199 0.780313
vt 0.461432 0.791965
vt 0.311533 0.831870
vt 0.038205 0.736204
vt 0.091206 0.736090
vt 0.145008 0.740157
vt 0.937456 0.198809
vt 0.872068 0.804937
vt 0.844932 0.787414
vt 0.856693 0.788073
vt 0.866622 0.794489
vt 0.753092 0.706542
vt 0.814139 0.658426
vt 0.819924 0.671848
vt 0.762156 0.714559
vt 0.841148 0.652929
vt 0.871267 0.653665
vt 0.871943 0.663587
vt 0.841358 0.662641
vt 0.898580 0.660913
vt 0.964755 0.707711
vt 0.953863 0.715864
vt 0.892611 0.673724
vt 0.987855 0.781499
vt 0.975882 0.783001
vt 0.982255 0.853156
vt 0.970995 0.849311
vt 0.943189 0.913059
vt 0.935193 0.904239
vt 0.879740 0.946133
vt 0.877110 0.934519
vt 0.807890 0.943496
vt 0.811329 0.932093
vt 0.746764 0.905462
vt 0.755421 0.897272
vt 0.712762 0.841558
vt 0.724375 0.838774
vt 0.715749 0.768978
vt 0.727297 0.772234
vt 0.834030 0.735896
vt 0.797709 0.752753
vt 0.872735 0.737791
vt 0.905456 0.759422
vt 0.924711 0.793942
vt 0.922305 0.833373
vt 0.900809 0.866401
vt 0.865121 0.883082
vt 0.826577 0.881314
vt 0.794499 0.859917
vt 0.776935 0.826043
vt 0.776683 0.786335
vt 0.834411 0.792623
vt 0.871485 0.816618
vt 0.865107 0.826388
vt 0.854645 0.831620
vt 0.842982 0.830953
vt 0.833139 0.824586
vt 0.827691 0.814174
vt 0.828115 0.802450
vt 0.841243 0.535775
vt 0.869936 0.535313
vt 0.860924 0.540585
vt 0.849434 0.540427
vt 0.881797 0.621974
vt 0.830450 0.623419
vt 0.865484 0.622714
vt 0.845740 0.623296
vt 0.882422 0.588445
vt 0.830106 0.589871
vt 0.866162 0.590069
vt 0.846018 0.590667
vt 0.886607 0.558103
vt 0.824608 0.557754
vt 0.866954 0.561946
vt 0.843727 0.562117
vn -0.042594 0.999092 0.000754
vn -0.042594 0.999092 0.000754
vn -0.042594 0.999092 0.000754
vn -0.042594 0.999092 0.000754
vn -0.176436 0.968584 0.175257
vn -0.176436 0.968584 0.175257
vn -0.176436 0.968584 0.175257
vn -0.176436 0.968584 0.175257
vn -0.076858 0.956223 0.282364
vn -0.076858 0.956223 0.282364
vn -0.076858 0.956224 0.282364
vn -0.076858 0.956223 0.282364
vn 0.021678 0.998999 0.039130
vn 0.021678 0.998999 0.039130
vn 0.021678 0.998999 0.039130
vn 0.021678 0.998999 0.039130
vn 0.000000 1.000000 0.000001
vn 0.000000 1.000000 0.000001
vn 0.000000 1.000000 0.000001
vn 0.000000 1.000000 0.000001
vn 0.000000 1.000000 0.000000
vn 0.000000 1.000000 0.000000
vn 0.000000 1.000000 0.000000
vn 0.000000 1.000000 0.000000
vn 0.000000 1.000000 -0.000000
vn 0.000000 1.000000 -0.000000
vn 0.000000 1.000000 -0.000000
vn 0.000000 1.000000 -0.000000
vn 0.000000 1.000000 0.000000
vn 0.000000 1.000000 0.000000
vn 0.000000 1.000000 0.000000
vn 0.000000 1.000000 0.000000
vn 0.000000 1.000000 0.000001
vn 0.000000 1.000000 0.000001
vn 0.000000 1.000000 0.000001
vn 0.000000 1.000000 0.000001
vn 0.000000 1.000000 -0.000000
vn 0.000000 1.000000 -0.000000
vn 0.000000 1.000000 -0.000000
vn 0.000000 1.000000 -0.000000
vn 0.000000 1.000000 -0.000000
vn 0.000000 1.000000 -0.000000
vn 0.000000 1.000000 -0.000000
vn 0.000000 1.000000 -0.000000
vn 0.000000 1.000000 -0.000000
vn 0.000000 1.000000 -0.000000
vn 0.000000 1.000000 -0.000000
vn 0.000000 1.000000 -0.000000
vn 0.958679 -0.122265 -0.256877
vn 0.958679 -0.122265 -0.256877
vn 0.958679 -0.122265 -0.256877
vn 0.958679 -0.122265 -0.256877
vn 0.701802 -0.122265 -0.701802
vn 0.701802 -0.122265 -0.701802
vn 0.701802 -0.122265 -0.701802
vn 0.701802 -0.122265 -0.701802
vn 0.256877 -0.122265 -0.958679
vn 0.256877 -0.122265 -0.958679
vn 0.256877 -0.122265 -0.958679
vn 0.256877 -0.122265 -0.958679
vn -0.256877 -0.122265 -0.958679
vn -0.256877 -0.122265 -0.958679
vn -0.256877 -0.122265 -0.958679
vn -0.256877 -0.122265 -0.958679
vn -0.701802 -0.122265 -0.701802
vn -0.701802 -0.122265 -0.701802
vn -0.701802 -0.122265 -0.701802
vn -0.701802 -0.122265 -0.701802
vn -0.958679 -0.122265 -0.256877
vn -0.958679 -0.122265 -0.256877
vn -0.958679 -0.122265 -0.256877
vn -0.958679 -0.122265 -0.256877
vn -0.958679 -0.122265 0.256877
vn -0.958679 -0.122265 0.256877
vn -0.958679 -0.122265 0.256877
vn -0.958679 -0.122265 0.256877
vn -0.701802 -0.122265 0.701802
vn -0.701802 -0.122265 0.701802
vn -0.701802 -0.122265 0.701802
vn -0.701802 -0.122265 0.701802
vn -0.256877 -0.122265 0.958679
vn -0.256877 -0.122265 0.958679
vn -0.256877 -0.122265 0.958679
vn -0.256877 -0.122265 0.958679
vn 0.256877 -0.122265 0.958679
vn 0.256877 -0.122265 0.958679
vn 0.256877 -0.122265 0.958679
vn 0.256877 -0.122265 0.958679
vn 0.701802 -0.122265 0.701802
vn 0.701802 -0.122265 0.701802
vn 0.701802 -0.122265 0.701802
vn 0.701802 -0.122265 0.701802
vn 0.958679 -0.122265 0.256877
vn 0.958679 -0.122265 0.256877
vn 0.958679 -0.122265 0.256877
vn 0.958679 -0.122265 0.256877
vn 0.773680 -0.598701 -0.207307
vn 0.773680 -0.598701 -0.207307
vn 0.773680 -0.598701 -0.207307
vn 0.773680 -0.598701 -0.207307
vn 0.566374 -0.598700 -0.566373
vn 0.566374 -0.598700 -0.566373
vn 0.566374 -0.598700 -0.566373
vn 0.566374 -0.598700 -0.566373
vn 0.207307 -0.598701 -0.773680
vn 0.207307 -0.598701 -0.773680
vn 0.207307 -0.598701 -0.773680
vn 0.207307 -0.598701 -0.773680
vn -0.207308 -0.598700 -0.773680
vn -0.207308 -0.598700 -0.773680
vn -0.207308 -0.598700 -0.773680
vn -0.207308 -0.598700 -0.773680
vn -0.566373 -0.598701 -0.566373
vn -0.566373 -0.598701 -0.566373
vn -0.566373 -0.598701 -0.566373
vn -0.566373 -0.598701 -0.566373
vn -0.773681 -0.598701 -0.207307
vn -0.773680 -0.598701 -0.207307
vn -0.773680 -0.598701 -0.207307
vn -0.773680 -0.598701 -0.207307
vn -0.773680 -0.598701 0.207307
vn -0.773680 -0.598701 0.207307
vn -0.773680 -0.598701 0.207307
vn -0.773680 -0.598701 0.207307
vn -0.566374 -0.598701 0.566373
vn -0.566374 -0.598701 0.566373
vn -0.566374 -0.598701 0.566373
vn -0.566374 -0.598701 0.566373
vn -0.207306 -0.598700 0.773681
vn -0.207306 -0.598700 0.773681
vn -0.207306 -0.598700 0.773681
vn -0.207306 -0.598700 0.773681
vn 0.207308 -0.598701 0.773680
vn 0.207308 -0.598701 0.773680
vn 0.207308 -0.598701 0.773680
vn 0.207308 -0.598701 0.773680
vn 0.566374 -0.598701 0.566373
vn 0.566374 -0.598701 0.566373
vn 0.566374 -0.598701 0.566373
vn 0.566374 -0.598701 0.566373
vn 0.773680 -0.598701 0.207307
vn 0.773680 -0.598701 0.207307
vn 0.773680 -0.598701 0.207307
vn 0.773680 -0.598701 0.207307
vn 0.965097 0.041407 -0.258597
vn 0.965097 0.041407 -0.258597
vn 0.965097 0.041407 -0.258597
vn 0.965097 0.041407 -0.258597
vn 0.706501 0.041407 -0.706500
vn 0.706501 0.041407 -0.706500
vn 0.706501 0.041407 -0.706500
vn 0.706501 0.041407 -0.706500
vn 0.258597 0.041408 -0.965097
vn 0.258597 0.041408 -0.965097
vn 0.258597 0.041408 -0.965097
vn 0.258597 0.041408 -0.965097
vn -0.258598 0.041408 -0.965097
vn -0.258598 0.041408 -0.965097
vn -0.258598 0.041408 -0.965097
vn -0.258598 0.041408 -0.965097
vn -0.706500 0.041407 -0.706500
vn -0.706500 0.041407 -0.706500
vn -0.706500 0.041407 -0.706500
vn -0.706500 0.041407 -0.706500
vn -0.965097 0.041407 -0.258597
vn -0.965097 0.041407 -0.258597
vn -0.965097 0.041407 -0.258597
vn -0.965097 0.041407 -0.258597
vn -0.965097 0.041407 0.258597
vn -0.965097 0.041407 0.258597
vn -0.965097 0.041407 0.258597
vn -0.965097 0.041407 0.258597
vn -0.706501 0.041407 0.706500
vn -0.706501 0.041407 0.706500
vn -0.706501 0.041407 0.706500
vn -0.706501 0.041407 0.706500
vn -0.258597 0.041408 0.965098
vn -0.258597 0.041408 0.965098
vn -0.258597 0.041408 0.965098
vn -0.258597 0.041408 0.965098
vn 0.258597 0.041407 0.965097
vn 0.258597 0.041407 0.965097
vn 0.258597 0.041407 0.965097
vn 0.258597 0.041407 0.965097
vn 0.706500 0.041407 0.706500
vn 0.706500 0.041407 0.706500
vn 0.706500 0.041407 0.706500
vn 0.706501 0.041407 0.706500
vn 0.965097 0.041407 0.258597
vn 0.965097 0.041407 0.258597
vn 0.965097 0.041407 0.258597
vn 0.965097 0.041407 0.258597
vn 0.000000 -1.000000 0.000000
vn 0.000000 -1.000000 -0.000000
vn 0.000000 -1.000000 -0.000001
vn 0.000000 -1.000000 -0.000000
vn 0.000000 -1.000000 0.000000
vn 0.000000 -1.000000 0.000000
vn 0.000000 -1.000000 -0.000000
vn 0.000000 -1.000000 0.000000
vn 0.000000 -1.000000 -0.000000
vn 0.000000 -1.000000 0.000000
vn 0.000000 -1.000000 0.000000
vn 0.000000 -1.000000 0.000000
vn 0.000000 1.000000 0.000000
vn 0.000000 1.000000 0.000000
vn 0.000000 1.000000 0.000003
vn 0.000000 1.000000 0.000003
vn 0.998341 0.000000 -0.057577
vn 0.992830 0.058059 -0.104487
vn 0.993554 0.052846 -0.100288
vn 0.998341 0.000000 -0.057577
vn 0.606616 0.523303 -0.598475
vn 0.606616 0.523303 -0.598475
vn 0.606616 0.523303 -0.598475
vn 0.606616 0.523303 -0.598475
vn 0.266256 0.040628 -0.963046
vn 0.266480 0.000000 -0.963841
vn 0.266480 0.000000 -0.963841
vn 0.266296 0.036733 -0.963191
vn -0.462185 0.000000 -0.886784
vn -0.462185 0.000000 -0.886784
vn -0.462185 0.000000 -0.886784
vn -0.462185 0.000000 -0.886784
vn -0.707107 0.000000 -0.707107
vn -0.707107 0.000000 -0.707107
vn -0.707107 0.000000 -0.707107
vn -0.707107 0.000000 -0.707107
vn -0.965926 0.000000 -0.258819
vn -0.965926 0.000000 -0.258819
vn -0.965926 0.000000 -0.258819
vn -0.965926 0.000000 -0.258819
vn -0.965926 0.000000 0.258819
vn -0.965926 0.000000 0.258819
vn -0.965926 0.000000 0.258819
vn -0.965926 0.000000 0.258819
vn -0.707107 0.000000 0.707107
vn -0.707107 0.000000 0.707107
vn -0.707107 0.000000 0.707107
vn -0.707107 0.000000 0.707107
vn -0.258819 0.000000 0.965926
vn -0.258819 0.000000 0.965926
vn -0.258819 0.000000 0.965926
vn -0.258819 0.000000 0.965926
vn 0.258820 0.000000 0.965926
vn 0.258820 0.000000 0.965926
vn 0.258820 0.000000 0.965926
vn 0.258820 0.000000 0.965926
vn 0.707107 0.000000 0.707107
vn 0.707107 0.000000 0.707107
vn 0.707107 0.000000 0.707107
vn 0.707107 0.000000 0.707107
vn 0.965926 0.000000 0.258819
vn 0.965926 0.000000 0.258819
vn 0.965926 0.000000 0.258819
vn 0.965926 0.000000 0.258819
vn 0.349824 0.936751 0.011017
vn 0.349824 0.936751 0.011017
vn 0.349824 0.936751 0.011017
vn 0.349824 0.936751 0.011017
vn 0.239745 0.941316 -0.237585
vn 0.239845 0.941266 -0.237683
vn 0.237225 0.942564 -0.235156
vn 0.237225 0.942564 -0.235156
vn 0.087411 0.943505 -0.319622
vn 0.087411 0.943505 -0.319622
vn 0.087411 0.943505 -0.319622
vn 0.087411 0.943505 -0.319622
vn -0.186417 0.937428 -0.294071
vn -0.186417 0.937428 -0.294072
vn -0.186417 0.937428 -0.294071
vn -0.186417 0.937428 -0.294071
vn -0.237417 0.941948 -0.237417
vn -0.237417 0.941948 -0.237417
vn -0.237417 0.941948 -0.237417
vn -0.237417 0.941948 -0.237417
vn -0.324317 0.941948 -0.086901
vn -0.324317 0.941948 -0.086901
vn -0.324317 0.941948 -0.086901
vn -0.324317 0.941948 -0.086901
vn -0.385118 0.921488 0.050427
vn -0.385118 0.921489 0.050427
vn -0.385118 0.921489 0.050427
vn -0.385118 0.921489 0.050427
vn -0.305602 0.901784 0.305602
vn -0.305602 0.901784 0.305602
vn -0.305602 0.901784 0.305602
vn -0.305602 0.901784 0.305602
vn -0.145001 0.889106 0.434126
vn -0.145001 0.889106 0.434126
vn -0.145001 0.889106 0.434126
vn -0.145001 0.889106 0.434126
vn 0.124456 0.876796 0.464478
vn 0.124456 0.876796 0.464478
vn 0.124456 0.876796 0.464478
vn 0.124456 0.876796 0.464478
vn 0.346110 0.908273 0.235047
vn 0.346110 0.908273 0.235047
vn 0.346110 0.908273 0.235047
vn 0.346111 0.908273 0.235047
vn 0.324317 0.941948 0.086901
vn 0.324317 0.941948 0.086901
vn 0.324317 0.941948 0.086901
vn 0.324317 0.941948 0.086901
vn 0.083962 0.992287 0.091194
vn 0.083962 0.992287 0.091194
vn 0.083962 0.992287 0.091194
vn 0.083962 0.992287 0.091194
vn 0.002062 0.999996 -0.002061
vn 0.002062 0.999996 -0.002061
vn 0.002062 0.999996 -0.002061
vn 0.002062 0.999996 -0.002061
vn 0.000755 0.999996 -0.002816
vn 0.000755 0.999996 -0.002816
vn 0.000755 0.999996 -0.002816
vn 0.000755 0.999996 -0.002816
vn -0.120957 0.992287 -0.027116
vn -0.120957 0.992287 -0.027116
vn -0.120957 0.992287 -0.027116
vn -0.120957 0.992287 -0.027116
vn -0.079380 0.993679 -0.079380
vn -0.079380 0.993679 -0.079380
vn -0.079380 0.993679 -0.079380
vn -0.079380 0.993679 -0.079380
vn -0.108435 0.993679 -0.029057
vn -0.108435 0.993679 -0.029057
vn -0.108435 0.993679 -0.029057
vn -0.108435 0.993679 -0.029057
vn -0.083616 0.992164 -0.092836
vn -0.083616 0.992164 -0.092836
vn -0.083616 0.992164 -0.092836
vn -0.083616 0.992164 -0.092836
vn -0.000990 0.999999 0.000991
vn -0.000990 0.999999 0.000991
vn -0.000990 0.999999 0.000991
vn -0.000990 0.999999 0.000991
vn -0.053144 0.997561 -0.045246
vn -0.053144 0.997561 -0.045246
vn -0.053144 0.997561 -0.045246
vn -0.053144 0.997561 -0.045246
vn -0.015874 0.998118 -0.059241
vn -0.015874 0.998118 -0.059241
vn -0.015874 0.998118 -0.059241
vn -0.015874 0.998118 -0.059241
vn 0.140054 0.984648 -0.104177
vn 0.140054 0.984648 -0.104177
vn 0.140054 0.984648 -0.104177
vn 0.140054 0.984648 -0.104177
vn 0.108435 0.993679 0.029054
vn 0.108435 0.993679 0.029054
vn 0.108435 0.993679 0.029054
vn 0.108435 0.993679 0.029054
vn 0.000000 1.000000 0.000000
vn 0.000000 1.000000 0.000000
vn 0.000000 1.000000 0.000000
vn 0.000000 1.000000 0.000000
vn 0.000000 1.000000 0.000000
vn 0.000000 1.000000 0.000000
vn 0.000000 1.000000 0.000000
vn 0.000000 1.000000 0.000000
vn 0.000000 -1.000000 0.000001
vn 0.000000 -1.000000 0.000001
vn 0.000000 -1.000000 0.000001
vn 0.000000 -1.000000 0.000001
vn 0.261830 0.185603 -0.947099
vn 0.261830 0.185603 -0.947099
vn 0.286459 0.915462 -0.282614
vn 0.286459 0.915462 -0.282614
vn 0.940126 0.235837 -0.246059
vn 0.940126 0.235837 -0.246059
vn 0.161044 -0.362782 -0.917853
vn 0.161044 -0.362782 -0.917853
vn 0.167593 -0.244025 -0.955178
vn 0.167191 -0.253084 -0.952888
vn 0.685826 -0.267998 -0.676624
vn 0.685826 -0.267998 -0.676624
vn 0.695995 -0.209987 -0.686656
vn 0.696157 -0.208924 -0.686816
vn 0.933900 -0.337156 -0.118978
vn 0.933900 -0.337156 -0.118978
vn 0.959250 -0.254766 -0.122207
vn 0.961345 -0.246611 -0.122474
vn 0.172661 -0.042523 -0.984063
vn 0.172689 -0.038539 -0.984222
vn 0.708602 -0.095666 -0.699093
vn 0.708623 -0.095359 -0.699114
vn 0.991026 -0.043893 -0.126256
vn 0.990535 -0.053990 -0.126193
vn 0.170150 -0.175027 -0.969750
vn 0.170349 -0.168438 -0.970881
vn 0.701165 -0.172748 -0.691756
vn 0.701292 -0.171729 -0.691881
vn 0.979625 -0.157352 -0.124804
vn 0.979381 -0.158885 -0.124773
vn 0.158396 -0.399921 -0.902759
vn 0.158396 -0.399921 -0.902759
vn 0.672817 -0.326653 -0.663788
vn 0.672817 -0.326653 -0.663788
vn 0.905133 -0.409192 -0.115314
vn 0.905133 -0.409192 -0.115314
s off
g GlassOfBeer_mesh
usemtl lambert2SG
f 2/2/1 1/1/2 13/11/3 14/12/4
f 3/54/5 2/2/6 14/12/7 15/56/8
f 4/53/9 3/54/10 15/56/11 16/55/12
f 5/3/13 4/75/14 16/13/15 17/14/16
f 6/4/17 5/3/18 17/14/19 18/15/20
f 7/5/21 6/4/22 18/15/23 19/16/24
f 8/6/25 7/5/26 19/16/27 20/17/28
f 9/7/29 8/6/30 20/17/31 21/18/32
f 10/8/33 9/7/34 21/18/35 22/19/36
f 11/9/37 10/8/38 22/19/39 23/20/40
f 12/10/41 11/9/42 23/20/43 24/21/44
f 1/1/45 12/10/46 24/21/47 13/11/48
f 14/12/49 13/11/50 25/22/51 26/23/52
f 15/56/53 14/12/54 26/23/55 27/60/56
f 16/55/57 15/56/58 27/60/59 28/57/60
f 17/14/61 16/13/62 28/24/63 29/25/64
f 18/15/65 17/14/66 29/25/67 30/26/68
f 19/16/69 18/15/70 30/26/71 31/27/72
f 20/17/73 19/16/74 31/27/75 32/28/76
f 21/18/77 20/17/78 32/28/79 33/29/80
f 22/19/81 21/18/82 33/29/83 34/30/84
f 23/20/85 22/19/86 34/30/87 35/31/88
f 24/21/89 23/20/90 35/31/91 36/32/92
f 13/11/93 24/21/94 36/32/95 25/22/96
f 38/33/97 37/34/98 39/66/99 40/74/100
f 41/61/101 38/33/102 40/74/103 42/73/104
f 43/62/105 41/61/106 42/73/107 44/72/108
f 45/37/109 43/35/110 44/36/111 46/38/112
f 47/39/113 45/37/114 46/38/115 48/40/116
f 49/41/117 47/39/118 48/40/119 50/42/120
f 51/43/121 49/41/122 50/42/123 52/70/124
f 53/45/125 51/43/126 52/70/127 54/69/128
f 55/47/129 53/45/130 54/69/131 56/68/132
f 57/49/133 55/47/134 56/68/135 58/67/136
f 59/51/137 57/49/138 58/67/139 60/48/140
f 37/34/141 59/51/142 60/48/143 39/66/144
f 26/23/145 25/22/146 37/34/147 38/33/148
f 27/60/149 26/23/150 38/33/151 41/61/152
f 28/57/153 27/60/154 41/61/155 43/62/156
f 29/25/157 28/24/158 43/35/159 45/37/160
f 30/26/161 29/25/162 45/37/163 47/39/164
f 31/27/165 30/26/166 47/39/167 49/41/168
f 32/28/169 31/27/170 49/41/171 51/43/172
f 33/29/173 32/28/174 51/43/175 53/45/176
f 34/30/177 33/29/178 53/45/179 55/47/180
f 35/31/181 34/30/182 55/47/183 57/49/184
f 36/32/185 35/31/186 57/49/187 59/51/188
f 25/22/189 36/32/190 59/51/191 37/34/192
s 1
f 40/63/193 50/46/194 48/64/195 46/65/196
f 40/63/193 46/65/196 44/59/197 42/58/198
f 52/44/199 50/46/194 60/48/200 54/50/201
f 60/48/200 50/46/194 40/63/193 39/66/202
f 54/50/201 60/48/200 58/52/203 56/71/204
s 2
f 89/76/205 86/77/206 87/78/207 88/79/208
s 3
f 1/80/209 2/81/210 62/82/211 61/83/212
s off
f 97/84/213 98/85/214 99/86/215 100/87/216
s 4
f 3/88/217 4/89/218 64/90/219 63/91/220
s off
f 4/89/221 5/92/222 65/93/223 64/90/224
f 5/92/225 6/94/226 66/95/227 65/93/228
f 6/94/229 7/96/230 67/97/231 66/95/232
f 7/96/233 8/98/234 68/99/235 67/97/236
f 8/98/237 9/100/238 69/101/239 68/99/240
f 9/100/241 10/102/242 70/103/243 69/101/244
f 10/102/245 11/104/246 71/105/247 70/103/248
f 11/104/249 12/106/250 72/107/251 71/105/252
f 12/106/253 1/80/254 61/83/255 72/107/256
f 61/83/257 62/82/258 74/108/259 73/109/260
s 5
f 62/82/261 63/91/262 75/110/263 74/108/264
s off
f 63/91/265 64/90/266 76/111/267 75/110/268
f 64/90/269 65/93/270 77/112/271 76/111/272
f 65/93/273 66/95/274 78/113/275 77/112/276
f 66/95/277 67/97/278 79/114/279 78/113/280
f 67/97/281 68/99/282 80/115/283 79/114/284
f 68/99/285 69/101/286 81/116/287 80/115/288
f 69/101/289 70/103/290 82/117/291 81/116/292
f 70/103/293 71/105/294 83/118/295 82/117/296
f 71/105/297 72/107/298 84/119/299 83/118/300
f 72/107/301 61/83/302 73/109/303 84/119/304
f 73/109/305 74/108/306 86/77/307 85/120/308
f 74/108/309 75/110/310 87/78/311 86/77/312
f 75/110/313 76/111/314 88/79/315 87/78/316
f 76/111/317 77/112/318 89/76/319 88/79/320
f 77/112/321 78/113/322 90/121/323 89/76/324
f 78/113/325 79/114/326 91/122/327 90/121/328
f 79/114/329 80/115/330 92/123/331 91/122/332
f 80/115/333 81/116/334 93/124/335 92/123/336
f 81/116/337 82/117/338 94/125/339 93/124/340
f 82/117/341 83/118/342 95/126/343 94/125/344
f 83/118/345 84/119/346 96/127/347 95/126/348
f 84/119/349 73/109/350 85/120/351 96/127/352
s 2
f 96/127/353 85/120/354 86/77/206 91/122/355
f 91/122/355 86/77/206 89/76/205 90/121/356
f 96/127/353 93/124/357 94/125/358 95/126/359
f 96/127/353 91/122/355 92/123/360 93/124/357
s off
f 113/128/361 114/129/362 115/130/363 116/131/364
s 4
f 3/88/217 63/91/220 99/86/365 98/85/366
s 5
f 63/91/262 62/82/261 100/87/367 99/86/368
s 3
f 62/82/211 2/81/210 97/84/369 100/87/370
s 6
f 3/88/371 98/85/372 103/134/373 102/132/374
s 7
f 98/85/375 97/84/376 104/135/377 103/134/378
s 8
f 97/84/379 2/81/380 101/133/381 104/135/382
s 6
f 102/132/374 103/134/373 107/138/383 106/136/384
s 7
f 103/134/378 104/135/377 108/139/385 107/138/386
s 8
f 104/135/382 101/133/381 105/137/387 108/139/388
s 6
f 106/136/384 107/138/383 111/142/389 110/140/390
s 7
f 107/138/386 108/139/385 112/143/391 111/142/392
s 8
f 108/139/388 105/137/387 109/141/393 112/143/394
s 6
f 110/140/390 111/142/389 115/130/395 114/129/396
s 7
f 111/142/392 112/143/391 116/131/397 115/130/398
s 8
f 112/143/394 109/141/393 113/128/399 116/131/400
