mtllib materials.mtl
v 0.03249998 0.2524997 0.03250057
v 0.03749998 0.2524997 0.03116083
v 0.03749998 -0.1975001 0.03116021
v 0.03249998 -0.1975001 0.03249994
v 0.04116024 0.2524997 0.02750057
v 0.04116024 -0.1975001 0.02749994
v 0.04249999 0.2524997 0.02250057
v 0.04249999 -0.1975001 0.02249995
v 0.04116024 0.2524997 0.01750058
v 0.04116024 -0.1975001 0.01749995
v 0.03749998 0.2524997 0.01384032
v 0.03749998 -0.1975001 0.01383969
v 0.03249998 0.2524997 0.01250058
v 0.03249998 -0.1975001 0.01249996
v 0.02749999 0.2524997 0.01384032
v 0.02749999 -0.1975001 0.01383969
v 0.02383973 0.2524997 0.01750058
v 0.02383973 -0.1975001 0.01749995
v 0.02249998 0.2524997 0.02250057
v 0.02249998 -0.1975001 0.02249995
v 0.02383973 0.2524997 0.02750057
v 0.02383973 -0.1975001 0.02749994
v 0.02749999 0.2524997 0.03116083
v 0.02749999 -0.1975001 0.03116021
v 0.02249998 0.1325001 0.03250003
v 0.02249998 0.1393751 0.03250003
v 0.02249998 0.1462501 0.03250003
v 0.02249998 0.1531252 0.03250003
v 0.02249998 0.1600002 0.03250003
v 0.02249998 0.1668752 0.03250003
v 0.02249998 0.1737502 0.03250003
v 0.02249998 0.1806251 0.03250003
v 0.02249998 0.1875001 0.03250003
v 0.02249999 0.1943752 0.03250003
v 0.02249999 0.2012502 0.03250006
v 0.02249999 0.2081252 0.03250006
v 0.02249999 0.2150002 0.03250006
v 0.02249999 0.2218751 0.03250006
v 0.02249999 0.2287501 0.03250006
v 0.02249999 0.2356251 0.03250006
v 0.02250001 0.2425002 0.03250003
v 0.02250001 0.2424999 0.02250004
v 0.02250001 0.2356251 0.02250004
v 0.02250001 0.2287501 0.02250004
v 0.02250001 0.2218751 0.02250004
v 0.02250001 0.215 0.02250004
v 0.02250001 0.208125 0.02250004
v 0.02250001 0.2012501 0.02250001
v 0.02250001 0.1943752 0.02250001
v 0.02250001 0.1875001 0.02250001
v 0.02250001 0.1806251 0.02250004
v 0.02249999 0.17375 0.02250004
v 0.02249999 0.166875 0.02250004
v 0.02249999 0.1600001 0.02250004
v 0.02249999 0.1531252 0.02250004
v 0.02249999 0.1462501 0.02250004
v 0.02249999 0.1393751 0.02250004
v 0.02249999 0.1325001 0.02250004
v -0.1875 0.1325002 0.03250009
v -0.1875 0.1325001 0.02250007
v -0.1875 0.1393751 0.02250007
v -0.1875 0.1462501 0.02250007
v -0.1875 0.1531252 0.02250007
v -0.1875 0.1600001 0.02250007
v -0.1875 0.166875 0.02250007
v -0.1875 0.17375 0.02250007
v -0.1875 0.1806251 0.02250007
v -0.1875 0.1875001 0.02250007
v -0.1875 0.1943752 0.02250007
v -0.1875 0.2012501 0.02250007
v -0.1875 0.208125 0.02250007
v -0.1875 0.215 0.0225001
v -0.1875 0.2218751 0.0225001
v -0.1875 0.2287501 0.0225001
v -0.1875 0.2356251 0.0225001
v -0.1875 0.2425002 0.0225001
v -0.1875 0.2425002 0.03250009
v -0.1875 0.2356251 0.03250012
v -0.1875 0.2287501 0.03250012
v -0.1875 0.2218751 0.03250012
v -0.1875 0.2150002 0.03250012
v -0.1875 0.2081252 0.03250012
v -0.1875 0.2012502 0.03250009
v -0.1875 0.1943752 0.03250009
v -0.1875 0.1875001 0.03250009
v -0.1875 0.1806251 0.03250009
v -0.1875 0.1737502 0.03250009
v -0.1875 0.1668752 0.03250009
v -0.1875 0.1600002 0.03250009
v -0.1875 0.1531252 0.03250009
v -0.1875 0.1462501 0.03250009
v -0.1875 0.1393751 0.03250009
vn 0.2588181 -1.335083E-06 0.9659261
vn 0.7071069 -9.81153E-07 0.7071068
vn 0.9659258 -3.681059E-07 0.2588194
vn 0.9659258 3.531333E-07 -0.2588194
vn 0.7071068 9.867283E-07 -0.7071068
vn 0.2588179 1.351573E-06 -0.9659262
vn -0.2588182 1.350463E-06 -0.9659261
vn -0.7071069 9.852198E-07 -0.7071068
vn -0.9659258 3.525289E-07 -0.2588194
vn -0.9659258 -3.67291E-07 0.2588194
vn -0.7071068 -9.815784E-07 0.7071068
vn -0.2588179 -1.333753E-06 0.9659262
vn 0 1 1.436718E-06
vn 0 -1 2.021746E-08
vn 1 -1.748456E-07 6.513437E-07
vn -1 1.748458E-07 -3.141354E-06
vn 2.686412E-07 -3.387946E-07 1
vn -1.44465E-07 2.381597E-07 -1
vn -2.671801E-07 -1 9.626143E-06
vn 3.38139E-07 1 -8.508561E-06
vn -2.863808E-07 3.173788E-08 -1
vn -2.863808E-07 1.349488E-07 -1
vn -1.44465E-07 3.413755E-07 -1
vn -2.863808E-07 1.349488E-07 -1
vn -2.77511E-07 3.17374E-08 -1
vn -1.355952E-07 3.413707E-07 -1
vn -1.355952E-07 6.122995E-07 -1
vn -2.775109E-07 1.349501E-07 -1
vn -2.863808E-07 1.349488E-07 -1
vn -2.775109E-07 4.058774E-07 -1
vn -2.863808E-07 3.17374E-08 -1
vn -2.065535E-07 -1.864763E-06 -1
vn -1.444649E-07 3.413707E-07 -1
vn -1.444649E-07 3.413755E-07 -1
vn -1.355953E-07 2.381597E-07 -1
vn 2.863808E-07 2.45384E-07 1
vn 2.863808E-07 1.421766E-07 1
vn 2.77511E-07 -2.964734E-07 1
vn 2.863807E-07 -5.028951E-07 1
vn 2.77511E-07 -1.287555E-07 1
vn 2.863808E-07 2.453893E-07 1
vn 2.863807E-07 -2.964734E-07 1
vn 2.420331E-07 2.619248E-06 1
vn 2.863808E-07 1.42173E-07 1
vn 2.863808E-07 1.421766E-07 1
vn 2.77511E-07 -3.996842E-07 1
vn 2.863808E-07 2.45384E-07 1
vn 2.775111E-07 -2.554407E-08 1
vn 2.863808E-07 -2.964733E-07 1
vn 2.77511E-07 -5.67402E-07 1
vt 0.1781525 0.09345163
vt 0.1779314 0.09391966
vt 0.1372435 0.07469754
vt 0.1374646 0.0742295
vt 0.1826228 0.08449414
vt 0.1823836 0.0849532
vt 0.1424756 0.06416013
vt 0.1427148 0.06370107
vt 0.1706511 0.109069
vt 0.170321 0.1094677
vt 0.135662 0.08076663
vt 0.1359921 0.08036794
vt 0.06727909 0.1923693
vt 0.06676897 0.1924572
vt 0.05912764 0.1481107
vt 0.05963776 0.1480228
vt -0.110429 0.1712548
vt -0.110812 0.1709066
vt -0.08054091 0.13761
vt -0.08015789 0.1379583
vt -0.1622993 0.121068
vt -0.1625564 0.1206188
vt -0.1235021 0.09826347
vt -0.123245 0.09871272
vt -0.1779314 0.09391966
vt -0.1781525 0.09345162
vt -0.1374646 0.07422949
vt -0.1372435 0.07469754
vt -0.1823836 0.0849532
vt -0.1826228 0.08449413
vt -0.1427148 0.06370107
vt -0.1424756 0.06416013
vt -0.170321 0.1094676
vt -0.1706512 0.109069
vt -0.1359921 0.08036793
vt -0.135662 0.08076661
vt -0.06676897 0.1924572
vt -0.06727909 0.1923693
vt -0.05963777 0.1480228
vt -0.05912765 0.1481107
vt 0.110812 0.1709066
vt 0.110429 0.1712548
vt 0.08015789 0.1379583
vt 0.08054091 0.1376101
vt 0.1625564 0.1206188
vt 0.1622993 0.121068
vt 0.123245 0.09871272
vt 0.1235021 0.09826347
vt -0.03461717 0.005157427
vt -0.03414936 0.004935833
vt -0.03363343 0.004977832
vt -0.03320762 0.00527217
vt -0.03298602 0.00573998
vt -0.03302803 0.006255911
vt -0.03332236 0.006681721
vt -0.03379017 0.006903314
vt -0.0343061 0.006861317
vt -0.03473191 0.006566978
vt -0.0349535 0.006099168
vt -0.03491151 0.005583237
vt 0.03491172 0.005583185
vt 0.03495372 0.006099115
vt 0.03473213 0.006566925
vt 0.03430631 0.006861263
vt 0.03379038 0.006903262
vt 0.03332257 0.006681667
vt 0.03302824 0.006255857
vt 0.03298624 0.005739926
vt 0.03320783 0.005272116
vt 0.03363364 0.004977779
vt 0.03414957 0.00493578
vt 0.03461738 0.005157374
vt 0.1350799 0.1357771
vt 0.1354795 0.1363366
vt 0.1358791 0.136896
vt 0.1362787 0.1374555
vt 0.1366783 0.1380149
vt 0.1370779 0.1385744
vt 0.1374775 0.1391338
vt 0.1378771 0.1396932
vt 0.1382767 0.1402527
vt 0.1386763 0.1408121
vt 0.1390759 0.1413716
vt 0.1394755 0.141931
vt 0.1398751 0.1424905
vt 0.1402747 0.1430499
vt 0.1406743 0.1436093
vt 0.1410739 0.1441688
vt 0.1414735 0.1447282
vt 0.1406597 0.1453094
vt 0.1402602 0.14475
vt 0.1398606 0.1441906
vt 0.139461 0.1436311
vt 0.1390614 0.1430717
vt 0.1386617 0.1425122
vt 0.1382621 0.1419528
vt 0.1378625 0.1413934
vt 0.1374629 0.1408339
vt 0.1370634 0.1402745
vt 0.1366637 0.139715
vt 0.1362641 0.1391556
vt 0.1358645 0.1385962
vt 0.1354649 0.1380367
vt 0.1350653 0.1374773
vt 0.1346657 0.1369178
vt 0.1342661 0.1363584
vt -0.1350803 0.1357767
vt -0.1342666 0.1363579
vt -0.1346662 0.1369174
vt -0.1350658 0.1374768
vt -0.1354654 0.1380363
vt -0.135865 0.1385957
vt -0.1362646 0.1391551
vt -0.1366642 0.1397146
vt -0.1370638 0.140274
vt -0.1374634 0.1408335
vt -0.137863 0.1413929
vt -0.1382626 0.1419523
vt -0.1386622 0.1425118
vt -0.1390618 0.1430712
vt -0.1394614 0.1436307
vt -0.139861 0.1441901
vt -0.1402607 0.1447496
vt -0.1406603 0.145309
vt -0.141474 0.1447277
vt -0.1410744 0.1441683
vt -0.1406748 0.1436089
vt -0.1402752 0.1430494
vt -0.1398756 0.14249
vt -0.139476 0.1419306
vt -0.1390764 0.1413711
vt -0.1386768 0.1408117
vt -0.1382771 0.1402522
vt -0.1378776 0.1396928
vt -0.1374779 0.1391333
vt -0.1370783 0.1385739
vt -0.1366787 0.1380145
vt -0.1362791 0.137455
vt -0.1358795 0.1368956
vt -0.1354799 0.1363361
vt 0.1618914 0.09883419
vt 0.1712829 0.08005122
vt 0.1718978 0.08035868
vt 0.1625063 0.09914165
vt -0.1618914 0.0988342
vt -0.1625063 0.09914166
vt -0.1718978 0.08035869
vt -0.1712828 0.08005123
vt 0.03457706 0.004640927
vt 0.03363532 0.00497726
vt 0.02657234 -0.01479935
vt 0.02751409 -0.01513569
vt -0.03457695 0.004640935
vt -0.02751396 -0.01513568
vt -0.02657222 -0.01479934
vt -0.03363521 0.004977268
vt -0.1668107 0.1012939
vt -0.1674256 0.1016013
vt -0.1768171 0.08281837
vt -0.1762022 0.0825109
vt -0.1692704 0.1025237
vt -0.1698853 0.1028312
vt -0.1792768 0.0840482
vt -0.1786619 0.08374074
vt -0.164351 0.100064
vt -0.1649659 0.1003715
vt -0.1743574 0.08158852
vt -0.1737425 0.08128106
vt -0.1705002 0.1031386
vt -0.1711151 0.1034461
vt -0.1805066 0.08466312
vt -0.1798917 0.08435567
vt -0.1680405 0.1019088
vt -0.1686554 0.1022163
vt -0.1780469 0.08343329
vt -0.177432 0.08312583
vt -0.1655809 0.1006789
vt -0.1661958 0.1009864
vt -0.1755873 0.08220344
vt -0.1749723 0.08189598
vt -0.1631212 0.09944911
vt -0.1637361 0.09975656
vt -0.1731276 0.08097359
vt -0.1725127 0.08066613
vt -0.1711151 0.1034461
vt -0.17173 0.1037535
vt -0.1811215 0.08497058
vt -0.1805066 0.08466312
vt -0.1698853 0.1028312
vt -0.1705002 0.1031386
vt -0.1798917 0.08435567
vt -0.1792768 0.0840482
vt -0.1686555 0.1022162
vt -0.1692704 0.1025237
vt -0.1786619 0.08374073
vt -0.178047 0.08343326
vt -0.1674256 0.1016013
vt -0.1680405 0.1019088
vt -0.177432 0.08312583
vt -0.1768171 0.08281837
vt -0.1661957 0.1009865
vt -0.1668106 0.1012939
vt -0.1762021 0.08251098
vt -0.1755871 0.08220352
vt -0.1649659 0.1003715
vt -0.1655809 0.1006789
vt -0.1749723 0.08189598
vt -0.1743574 0.08158852
vt -0.1637361 0.09975658
vt -0.164351 0.100064
vt -0.1737425 0.08128106
vt -0.1731276 0.08097361
vt -0.1625063 0.09914166
vt -0.1631212 0.09944912
vt -0.1725127 0.08066615
vt -0.1718978 0.08035869
vt 0.1762022 0.08251091
vt 0.1768171 0.08281837
vt 0.1674256 0.1016013
vt 0.1668107 0.1012939
vt 0.1786619 0.08374075
vt 0.1792768 0.0840482
vt 0.1698853 0.1028312
vt 0.1692704 0.1025237
vt 0.1737425 0.08128106
vt 0.1743574 0.08158852
vt 0.164966 0.1003715
vt 0.164351 0.100064
vt 0.1798917 0.08435564
vt 0.1805066 0.0846631
vt 0.1711152 0.1034461
vt 0.1705002 0.1031386
vt 0.177432 0.08312582
vt 0.178047 0.08343329
vt 0.1686555 0.1022163
vt 0.1680405 0.1019088
vt 0.1749723 0.08189599
vt 0.1755873 0.08220346
vt 0.1661958 0.1009864
vt 0.1655808 0.100679
vt 0.1725127 0.08066614
vt 0.1731276 0.0809736
vt 0.1637361 0.09975657
vt 0.1631212 0.09944911
vt 0.1805065 0.08466322
vt 0.1811214 0.08497068
vt 0.1717299 0.1037536
vt 0.171115 0.1034462
vt 0.1792768 0.0840482
vt 0.1798917 0.08435567
vt 0.1705002 0.1031386
vt 0.1698853 0.1028312
vt 0.178047 0.08343329
vt 0.1786619 0.08374075
vt 0.1692704 0.1025237
vt 0.1686555 0.1022163
vt 0.1768171 0.08281834
vt 0.177432 0.08312581
vt 0.1680406 0.1019088
vt 0.1674256 0.1016013
vt 0.1755873 0.08220346
vt 0.1762022 0.08251091
vt 0.1668107 0.1012939
vt 0.1661958 0.1009864
vt 0.1743574 0.08158854
vt 0.1749724 0.08189599
vt 0.1655809 0.100679
vt 0.164966 0.1003715
vt 0.1731276 0.0809736
vt 0.1737425 0.08128106
vt 0.164351 0.100064
vt 0.1637361 0.09975657
vt 0.1718978 0.08035866
vt 0.1725127 0.08066612
vt 0.1631212 0.0994491
vt 0.1625063 0.09914164
o group1730482214
g mesh1730482214
usemtl mat15
f 4/4/1 3/3/1 2/2/1 1/1/1
f 3/8/2 6/7/2 5/6/2 2/5/2
f 6/12/3 8/11/3 7/10/3 5/9/3
f 8/16/4 10/15/4 9/14/4 7/13/4
f 10/20/5 12/19/5 11/18/5 9/17/5
f 12/24/6 14/23/6 13/22/6 11/21/6
f 14/28/7 16/27/7 15/26/7 13/25/7
f 16/32/8 18/31/8 17/30/8 15/29/8
f 18/36/9 20/35/9 19/34/9 17/33/9
f 20/40/10 22/39/10 21/38/10 19/37/10
f 22/44/11 24/43/11 23/42/11 21/41/11
f 24/48/12 4/47/12 1/46/12 23/45/12
f 1/60/13 2/59/13 5/58/13 7/57/13 9/56/13 11/55/13 13/54/13 15/53/13 17/52/13 19/51/13 21/50/13 23/49/13
f 24/72/14 22/71/14 20/70/14 18/69/14 16/68/14 14/67/14 12/66/14 10/65/14 8/64/14 6/63/14 3/62/14 4/61/14
o group1449568454
g mesh1449568454
usemtl mat22
f 58/106/15 57/105/15 56/104/15 55/103/15 54/102/15 53/101/15 52/100/15 51/99/15 50/98/15 49/97/15 48/96/15 47/95/15 46/94/15 45/93/15 44/92/15 43/91/15 42/90/15 41/89/15 40/88/15 39/87/15 38/86/15 37/85/15 36/84/15 35/83/15 34/82/15 33/81/15 32/80/15 31/79/15 30/78/15 29/77/15 28/76/15 27/75/15 26/74/15 25/73/15
f 92/140/16 91/139/16 90/138/16 89/137/16 88/136/16 87/135/16 86/134/16 85/133/16 84/132/16 83/131/16 82/130/16 81/129/16 80/128/16 79/127/16 78/126/16 77/125/16 76/124/16 75/123/16 74/122/16 73/121/16 72/120/16 71/119/16 70/118/16 69/117/16 68/116/16 67/115/16 66/114/16 65/113/16 64/112/16 63/111/16 62/110/16 61/109/16 60/108/16 59/107/16
f 59/152/19 60/151/19 58/150/19 25/149/19
f 42/156/20 76/155/20 77/154/20 41/153/20
usemtl mat12
f 26/144/17 92/143/17 59/142/17 25/141/17
f 60/148/18 61/147/18 57/146/18 58/145/18
f 64/168/23 65/167/23 53/166/23 54/165/23
f 62/184/27 63/183/27 55/182/27 56/181/27
f 63/212/34 64/211/34 54/210/34 55/209/34
f 61/216/35 62/215/35 56/214/35 57/213/35
f 29/228/38 30/227/38 88/226/38 89/225/38
f 27/244/42 28/243/42 90/242/42 91/241/42
f 28/272/49 29/271/49 89/270/49 90/269/49
f 26/276/50 27/275/50 91/274/50 92/273/50
usemtl mat8
f 68/160/21 69/159/21 49/158/21 50/157/21
f 70/176/25 71/175/25 47/174/25 48/173/25
f 66/180/26 67/179/26 51/178/26 52/177/26
f 69/200/31 70/199/31 48/198/31 49/197/31
f 67/204/32 68/203/32 50/202/32 51/201/32
f 65/208/33 66/207/33 52/206/33 53/205/33
f 33/220/36 34/219/36 84/218/36 85/217/36
f 35/236/40 36/235/40 82/234/40 83/233/40
f 31/240/41 32/239/41 86/238/41 87/237/41
f 34/260/46 35/259/46 83/258/46 84/257/46
f 32/264/47 33/263/47 85/262/47 86/261/47
f 30/268/48 31/267/48 87/266/48 88/265/48
usemtl mat23
f 72/164/22 73/163/22 45/162/22 46/161/22
f 74/172/24 75/171/24 43/170/24 44/169/24
f 75/188/28 76/187/28 42/186/28 43/185/28
f 73/192/29 74/191/29 44/190/29 45/189/29
f 71/196/30 72/195/30 46/194/30 47/193/30
f 37/224/37 38/223/37 80/222/37 81/221/37
f 39/232/39 40/231/39 78/230/39 79/229/39
f 40/248/43 41/247/43 77/246/43 78/245/43
f 38/252/44 39/251/44 79/250/44 80/249/44
f 36/256/45 37/255/45 81/254/45 82/253/45
